<svg xmlns="http://www.w3.org/2000/svg" style="display:none;">
  <symbol id="iconIllustrator" viewBox="0 0 300 300">
    <g>
      <path d="M 109.27 173.33 L 101.48 204.26 L 74.04 204.26 L 108.78 79.67 L 143.29 79.67 L 177.71 204.26 L 149.39 204.26 L 141.09 173.33 Z M 137.51 153 L 130.83 126.64 C 128.97 119.21 126.93 108.92 125.22 101.35 L 124.81 101.35 C 123.13 108.96 121.26 119.45 119.47 126.68 L 112.89 153.01 L 137.51 153.01 Z M 218.73 89.03 C 218.8 96.84 213.09 102.8 204.34 102.8 C 196.1 102.8 190.42 96.84 190.49 89.03 C 190.42 80.96 196.28 75.19 204.61 75.19 C 212.94 75.19 218.65 80.93 218.73 89.03 Z M 191.18 204.26 L 191.18 113.78 L 218.18 113.78 L 218.18 204.26 Z M 7.65 292.35 L 292.35 292.35 L 292.35 7.65 L 7.65 7.65 Z"/>
    </g>
  </symbol>
</svg>
